<?xml version="1.0" standalone="no"?>
<!DOCTYPE svg PUBLIC "-//W3C//DTD SVG 20010904//EN"
 "http://www.w3.org/TR/2001/REC-SVG-20010904/DTD/svg10.dtd">
<svg version="1.0" xmlns="http://www.w3.org/2000/svg"
 width="225.000000pt" height="225.000000pt" viewBox="0 0 225.000000 225.000000"
 preserveAspectRatio="xMidYMid meet">

<g transform="translate(0.000000,225.000000) scale(0.100000,-0.100000)"
fill="#000000" stroke="none">
<path d="M402 1986 l-32 -44 0 -819 0 -819 31 -42 31 -42 693 0 693 0 31 39
31 39 0 827 0 826 -32 40 -31 39 -692 0 -692 0 -31 -44z m1437 -15 l31 -39 0
-807 0 -807 -28 -39 -27 -39 -687 0 -687 0 -26 34 -26 34 1 817 0 817 26 34
26 34 683 0 683 0 31 -39z"/>
<path d="M1210 1939 c-93 -7 -155 -33 -214 -92 -90 -90 -131 -210 -140 -402
-3 -70 -2 -74 6 -35 41 194 73 273 140 340 103 103 248 115 402 32 80 -43 187
-155 230 -243 72 -146 69 -284 -10 -411 -62 -101 -111 -209 -158 -347 -25 -73
-58 -155 -73 -183 -54 -99 -212 -211 -295 -210 -77 1 -145 67 -216 210 -20 39
-40 72 -44 72 -22 0 2 -150 34 -213 84 -166 328 -213 470 -89 48 43 85 130
114 270 28 136 35 154 119 287 206 329 243 520 140 725 -43 85 -100 149 -183
203 -112 74 -195 96 -322 86z"/>
<path d="M1257 1684 c-74 -23 -125 -82 -197 -230 -41 -86 -77 -143 -109 -178
-92 -98 -91 -122 9 -224 86 -88 89 -106 24 -168 -25 -25 -44 -50 -42 -57 3 -7
19 -21 36 -32 35 -23 38 -28 19 -47 -46 -45 -44 -98 3 -123 96 -50 187 36 222
210 14 70 -1 202 -38 349 -19 74 -25 117 -21 161 6 76 42 153 85 182 48 32
128 39 192 18 45 -15 55 -23 71 -59 10 -22 19 -56 19 -74 0 -39 17 -75 31 -67
15 10 10 126 -7 186 -12 39 -29 67 -63 100 -67 68 -136 83 -234 53z"/>
<path d="M428 750 l-3 -60 243 0 242 0 0 60 0 60 -65 0 c-51 0 -65 -3 -65 -15
0 -8 -6 -16 -12 -16 -7 -1 5 -5 27 -8 27 -4 41 -12 43 -23 3 -15 -5 -18 -51
-18 -40 0 -56 -4 -61 -15 -3 -8 -13 -15 -23 -15 -17 1 -17 1 1 11 14 9 15 13
6 19 -7 5 -10 15 -6 25 6 17 8 17 25 1 18 -16 19 -16 19 10 0 14 6 30 13 35 8
5 -56 9 -158 9 l-171 0 -4 -60z m222 25 c10 -13 9 -15 -8 -15 -15 0 -20 5 -16
15 4 8 7 15 9 15 1 0 8 -7 15 -15z m-89 -33 c46 3 119 -3 119 -9 0 -5 -28 -7
-63 -5 -48 3 -66 0 -76 -12 -8 -9 -21 -16 -29 -16 -13 0 -13 2 2 13 18 13 18
14 1 21 -14 5 -15 9 -4 22 11 14 14 14 24 1 6 -9 18 -15 26 -15z"/>
<path d="M783 743 c9 -2 23 -2 30 0 6 3 -1 5 -18 5 -16 0 -22 -2 -12 -5z"/>
</g>
</svg>
